<svg width="153" height="60" viewBox="0 0 153 60" fill="none" xmlns="http://www.w3.org/2000/svg">
<g clip-path="url(#clip0_93_682)">
<g clip-path="url(#clip1_93_682)">
<g clip-path="url(#clip2_93_682)">
<g clip-path="url(#clip3_93_682)">
<g clip-path="url(#clip4_93_682)">
<g clip-path="url(#clip5_93_682)">
<path d="M8.43216 59.6888H6.11522C5.94732 59.6888 5.80461 59.6145 5.68709 59.4659C5.56956 59.3173 5.5108 59.1369 5.5108 58.9247V41.3184H0.851734C0.683839 41.3184 0.541129 41.2441 0.423603 41.0955C0.306077 40.947 0.247314 40.7665 0.247314 40.5543V38.1983C0.247314 37.9648 0.306077 37.7738 0.423603 37.6252C0.541129 37.4766 0.683839 37.4024 0.851734 37.4024H13.6956C13.8803 37.4024 14.0314 37.4766 14.149 37.6252C14.2665 37.7738 14.3252 37.9648 14.3252 38.1983V40.5543C14.3252 40.7665 14.2665 40.947 14.149 41.0955C14.0314 41.2441 13.8803 41.3184 13.6956 41.3184H9.06176V58.9247C9.06176 59.1369 9.003 59.3173 8.88547 59.4659C8.76795 59.6145 8.61684 59.6888 8.43216 59.6888ZM19.765 59.6888H17.4733C17.3054 59.6888 17.1627 59.6145 17.0451 59.4659C16.9276 59.3173 16.8688 59.1369 16.8688 58.9247V38.1983C16.8688 37.9648 16.9276 37.7738 17.0451 37.6252C17.1627 37.4766 17.3054 37.4024 17.4733 37.4024H23.996C26.0275 37.4024 27.6309 37.9967 28.8061 39.1853C29.9814 40.3739 30.569 42.1037 30.569 44.3748C30.569 45.9455 30.2618 47.2508 29.6473 48.2909C29.0361 49.3309 28.2185 50.0844 27.1943 50.5513L30.8712 58.67C30.9216 58.7973 30.9468 58.914 30.9468 59.0202C30.9468 59.2112 30.8914 59.3704 30.7806 59.4977C30.6731 59.6251 30.5522 59.6888 30.4179 59.6888H28.1262C27.8407 59.6888 27.6225 59.5933 27.4714 59.4022C27.3203 59.2112 27.2027 59.0202 27.1188 58.8291L23.87 51.2836H20.3694V58.9247C20.3694 59.1369 20.314 59.3173 20.2032 59.4659C20.0958 59.6145 19.9497 59.6888 19.765 59.6888ZM20.3694 40.9363V47.6859H23.9204C24.9446 47.6859 25.7085 47.393 26.2122 46.8072C26.7158 46.2257 26.9677 45.4042 26.9677 44.343C26.9677 43.2817 26.7192 42.4476 26.2222 41.8405C25.7286 41.2377 24.9613 40.9363 23.9204 40.9363H20.3694ZM34.9208 59.6888H32.7298C32.5955 59.6888 32.4746 59.6251 32.3672 59.4977C32.2563 59.3704 32.2009 59.2112 32.2009 59.0202C32.2009 58.9353 32.2177 58.8398 32.2513 58.7336L38.3257 38.1983C38.3727 37.9861 38.4684 37.7993 38.6128 37.638C38.7572 37.4809 38.9553 37.4024 39.2072 37.4024H41.9472C42.199 37.4024 42.3921 37.4809 42.5264 37.638C42.6641 37.7993 42.7648 37.9861 42.8286 38.1983L48.9031 58.7336C48.9165 58.8398 48.9232 58.9353 48.9232 59.0202C48.9232 59.2112 48.8745 59.3704 48.7771 59.4977C48.673 59.6251 48.5538 59.6888 48.4195 59.6888H46.2285C45.9968 59.6888 45.8256 59.6187 45.7147 59.4786C45.6039 59.3428 45.5334 59.2112 45.5032 59.0839L44.3145 55.1996H36.8399L35.6512 59.0839C35.6176 59.2112 35.5471 59.3428 35.4396 59.4786C35.3288 59.6187 35.1559 59.6888 34.9208 59.6888ZM40.5621 41.7005L37.7213 51.5383H43.4331L40.5621 41.7005ZM59.1731 59.6888H56.4029C56.1343 59.6888 55.9244 59.6039 55.7733 59.4341C55.6222 59.2643 55.5131 59.052 55.4459 58.7973L50.0565 38.3575C50.0229 38.2514 50.0061 38.1559 50.0061 38.071C50.0061 37.8799 50.0565 37.7207 50.1572 37.5934C50.258 37.466 50.3839 37.4024 50.535 37.4024H52.7512C52.9862 37.4024 53.1676 37.4809 53.2952 37.638C53.4194 37.7993 53.4983 37.9542 53.5319 38.1028L57.788 54.4992L62.0441 38.1028C62.0777 37.9542 62.1583 37.7993 62.2859 37.638C62.4101 37.4809 62.5898 37.4024 62.8248 37.4024H65.0411C65.1754 37.4024 65.2979 37.466 65.4087 37.5934C65.5162 37.7207 65.5699 37.8799 65.5699 38.071C65.5699 38.1559 65.5531 38.2514 65.5196 38.3575L60.1301 58.7973C60.063 59.052 59.9539 59.2643 59.8028 59.4341C59.6516 59.6039 59.4418 59.6888 59.1731 59.6888ZM80.1264 59.6888H68.8439C68.676 59.6888 68.5333 59.6145 68.4157 59.4659C68.2982 59.3173 68.2394 59.1369 68.2394 58.9247V38.1983C68.2394 37.9648 68.2982 37.7738 68.4157 37.6252C68.5333 37.4766 68.676 37.4024 68.8439 37.4024H79.9249C80.1096 37.4024 80.2607 37.4766 80.3782 37.6252C80.4957 37.7738 80.5545 37.9648 80.5545 38.1983V40.2996C80.5545 40.5118 80.4957 40.6923 80.3782 40.8408C80.2607 40.9894 80.1096 41.0637 79.9249 41.0637H71.6393V46.699H79.3708C79.5555 46.699 79.7066 46.7669 79.8241 46.9027C79.9417 47.0428 80.0004 47.2296 80.0004 47.4631V49.437C80.0004 49.6705 79.9417 49.8552 79.8241 49.991C79.7066 50.1311 79.5555 50.2011 79.3708 50.2011H71.6393V56.0274H80.1264C80.311 56.0274 80.4621 56.1017 80.5797 56.2503C80.6972 56.3989 80.756 56.5899 80.756 56.8234V58.9247C80.756 59.1369 80.6972 59.3173 80.5797 59.4659C80.4621 59.6145 80.311 59.6888 80.1264 59.6888ZM95.4383 59.6888H84.5084C84.3405 59.6888 84.1978 59.6145 84.0803 59.4659C83.9627 59.3173 83.904 59.1369 83.904 58.9247V38.1665C83.904 37.9542 83.9627 37.7738 84.0803 37.6252C84.1978 37.4766 84.3405 37.4024 84.5084 37.4024H86.8505C87.0184 37.4024 87.1611 37.4766 87.2786 37.6252C87.3962 37.7738 87.4549 37.9542 87.4549 38.1665V55.9001H95.4383C95.623 55.9001 95.7741 55.9744 95.8916 56.1229C96.0091 56.2715 96.0679 56.4625 96.0679 56.696V58.9247C96.0679 59.1369 96.0091 59.3173 95.8916 59.4659C95.7741 59.6145 95.623 59.6888 95.4383 59.6888ZM110.045 59.6888H99.1152C98.9473 59.6888 98.8046 59.6145 98.6871 59.4659C98.5695 59.3173 98.5108 59.1369 98.5108 58.9247V38.1665C98.5108 37.9542 98.5695 37.7738 98.6871 37.6252C98.8046 37.4766 98.9473 37.4024 99.1152 37.4024H101.457C101.625 37.4024 101.768 37.4766 101.885 37.6252C102 37.7738 102.057 37.9542 102.057 38.1665V55.9001H110.045C110.23 55.9001 110.381 55.9744 110.498 56.1229C110.616 56.2715 110.675 56.4625 110.675 56.696V58.9247C110.675 59.1369 110.616 59.3173 110.498 59.4659C110.381 59.6145 110.23 59.6888 110.045 59.6888ZM116.084 59.6888H113.717C113.549 59.6888 113.406 59.6145 113.289 59.4659C113.171 59.3173 113.113 59.1369 113.113 58.9247V38.1665C113.113 37.9542 113.171 37.7738 113.289 37.6252C113.406 37.4766 113.549 37.4024 113.717 37.4024H116.084C116.269 37.4024 116.417 37.4766 116.527 37.6252C116.635 37.7738 116.689 37.9542 116.689 38.1665V58.9247C116.689 59.1369 116.635 59.3173 116.527 59.4659C116.417 59.6145 116.269 59.6888 116.084 59.6888ZM123.362 59.6888H121.247C121.079 59.6888 120.936 59.6145 120.819 59.4659C120.701 59.3173 120.643 59.1369 120.643 58.9247V38.1983C120.643 37.9648 120.701 37.7738 120.819 37.6252C120.936 37.4766 121.079 37.4024 121.247 37.4024H123.186C123.421 37.4024 123.592 37.4703 123.7 37.6061C123.811 37.7462 123.883 37.8481 123.917 37.9118L131.17 52.1751V38.1983C131.17 37.9648 131.223 37.7738 131.331 37.6252C131.442 37.4766 131.589 37.4024 131.774 37.4024H133.889C134.074 37.4024 134.225 37.4766 134.343 37.6252C134.46 37.7738 134.519 37.9648 134.519 38.1983V58.8928C134.519 59.1263 134.46 59.3173 134.343 59.4659C134.225 59.6145 134.083 59.6888 133.915 59.6888H131.95C131.715 59.6888 131.547 59.6145 131.447 59.4659C131.346 59.3173 131.27 59.2218 131.22 59.1794L123.992 45.2344V58.9247C123.992 59.1369 123.933 59.3173 123.816 59.4659C123.698 59.6145 123.547 59.6888 123.362 59.6888ZM145.298 60.0071C143.753 60.0071 142.439 59.6675 141.354 58.9883C140.273 58.3091 139.433 57.3264 138.836 56.0402C138.241 54.7582 137.919 53.2257 137.869 51.4428C137.852 50.5301 137.843 49.5495 137.843 48.501C137.843 47.4482 137.852 46.4549 137.869 45.521C137.919 43.7593 138.241 42.2523 138.836 41C139.433 39.7477 140.281 38.782 141.379 38.1028C142.481 37.4236 143.787 37.084 145.298 37.084C146.523 37.084 147.598 37.292 148.521 37.708C149.445 38.1198 150.212 38.6504 150.823 39.2999C151.438 39.9451 151.899 40.6392 152.208 41.3821C152.521 42.125 152.685 42.8148 152.702 43.4515C152.719 43.6426 152.677 43.8017 152.576 43.9291C152.475 44.0564 152.341 44.1201 152.173 44.1201H149.579C149.411 44.1201 149.285 44.0777 149.201 43.9928C149.117 43.9079 149.042 43.7805 148.975 43.6107C148.84 43.165 148.631 42.7235 148.345 42.2863C148.06 41.8533 147.674 41.4882 147.187 41.1911C146.7 40.8939 146.07 40.7453 145.298 40.7453C144.156 40.7453 143.245 41.1274 142.563 41.8915C141.885 42.6556 141.52 43.9185 141.47 45.6802C141.419 47.5268 141.419 49.3946 141.47 51.2836C141.52 53.0877 141.893 54.3825 142.588 55.1678C143.286 55.9531 144.207 56.3458 145.348 56.3458C146.104 56.3458 146.779 56.176 147.373 55.8364C147.971 55.4968 148.441 54.9662 148.783 54.2445C149.129 53.5229 149.302 52.5996 149.302 51.4746V50.4877H146.23C146.062 50.4877 145.919 50.4134 145.802 50.2648C145.684 50.1162 145.625 49.9252 145.625 49.6917V48.0043C145.625 47.7708 145.684 47.5798 145.802 47.4312C145.919 47.2827 146.062 47.2084 146.23 47.2084H152.249C152.433 47.2084 152.579 47.2827 152.687 47.4312C152.798 47.5798 152.853 47.7708 152.853 48.0043V51.3473C152.853 53.1302 152.546 54.669 151.931 55.9638C151.32 57.2585 150.447 58.2561 149.312 58.9565C148.181 59.6569 146.842 60.0071 145.298 60.0071Z" fill="white"/>
</g>
</g>
</g>
</g>
<g clip-path="url(#clip6_93_682)">
<g clip-path="url(#clip7_93_682)">
<path d="M73.6279 7.37486H76.9572L78.7036 3.3999H77.8201L73.6279 7.37486Z" fill="white"/>
<path d="M74.1567 21.1428C73.42 21.6579 72.8105 22.4267 72.4004 23.3557C72.7539 23.2047 73.133 23.0883 73.5188 22.998C73.681 22.2978 73.8971 21.6726 74.1567 21.1428Z" fill="white"/>
<path d="M88.8363 -0.00732422H87.7928L83.8998 7.37473H88.0578L88.8363 -0.00732422Z" fill="white"/>
<path d="M78.4894 31.0847C79.4012 30.447 80.1168 29.4197 80.5017 28.1824C80.1145 28.3749 79.6887 28.5219 79.2503 28.6315C79.0818 29.5747 78.8209 30.4078 78.4894 31.0847Z" fill="white"/>
<path d="M78.4 24.0009C77.905 23.9186 77.357 23.8709 76.7722 23.8533V27.8049C77.3862 27.7862 77.963 27.7328 78.4804 27.6414C78.5366 27.153 78.5689 26.6414 78.5689 26.1139C78.5689 25.3717 78.5078 24.6579 78.4 24.0009Z" fill="white"/>
<path d="M78.4894 21.1428C78.7486 21.6732 78.9651 22.2984 79.1277 22.998C79.5131 23.0883 79.8926 23.2047 80.2461 23.3557C79.8356 22.4267 79.226 21.6579 78.4894 21.1428Z" fill="white"/>
<path d="M79.4672 26.1138C79.4672 26.5613 79.4465 26.9963 79.4101 27.4176C79.9968 27.2376 80.4662 27.0014 80.7887 26.7163C80.8053 26.5181 80.8147 26.3171 80.8147 26.1138C80.8147 25.6851 80.7738 25.2683 80.702 24.8663C80.3682 24.6016 79.9087 24.3836 79.3455 24.2178C79.4232 24.8186 79.4672 25.4523 79.4672 26.1138Z" fill="white"/>
<path d="M76.7722 31.6725C77.4177 31.3255 77.9711 30.2511 78.2873 28.8196C77.7469 28.8974 77.2254 28.9326 76.7722 28.9456V31.6725Z" fill="white"/>
<path d="M72.1443 28.1824C72.5288 29.4197 73.2448 30.4475 74.1566 31.0847C73.8256 30.4078 73.5646 29.5747 73.3961 28.6315C72.9573 28.5219 72.5315 28.3749 72.1443 28.1824Z" fill="white"/>
<path d="M73.1788 26.1138C73.1788 25.4523 73.2229 24.8186 73.3001 24.2178C72.7368 24.3836 72.2778 24.6016 71.9436 24.8663C71.8722 25.2683 71.8313 25.6851 71.8313 26.1138C71.8313 26.3171 71.8407 26.5181 71.8574 26.7163C72.1799 27.0014 72.6493 27.2376 73.2359 27.4176C73.1995 26.9963 73.1788 26.5613 73.1788 26.1138Z" fill="white"/>
<path d="M75.8737 31.6725V28.9456C75.4205 28.9326 74.899 28.8974 74.3586 28.8196C74.6749 30.2511 75.2283 31.3255 75.8737 31.6725Z" fill="white"/>
<path d="M76.7722 20.5552V22.7141C77.1805 22.7261 77.6481 22.7562 78.1359 22.8198C77.8098 21.6869 77.3256 20.8522 76.7722 20.5552Z" fill="white"/>
<path d="M74.5101 22.819C74.9979 22.7554 75.4655 22.7253 75.8738 22.7134V20.5544C75.3204 20.852 74.8362 21.6867 74.5101 22.819Z" fill="white"/>
<path d="M74.0771 26.1138C74.0771 26.6413 74.1095 27.153 74.1656 27.6419C74.6831 27.7333 75.2598 27.7867 75.8739 27.8054V23.8538C75.289 23.8714 74.741 23.9191 74.246 24.0014C74.1382 24.6578 74.0771 25.3716 74.0771 26.1138Z" fill="white"/>
<path d="M87.1032 26.1138H86.2049V24.9781H87.1032C87.8462 24.9781 88.4508 24.2138 88.4508 23.2746C88.4508 22.3353 87.8462 21.571 87.1032 21.571H83.2852C82.1708 21.571 81.2639 20.4245 81.2639 19.0157C81.2639 17.6069 82.1708 16.4604 83.2852 16.4604H86.4295C87.0484 16.4604 87.5524 15.8232 87.5524 15.0407V14.189H88.4508V15.0407C88.4508 16.4496 87.5439 17.5961 86.4295 17.5961H83.2852C82.6663 17.5961 82.1623 18.2332 82.1623 19.0157C82.1623 19.7982 82.6663 20.4353 83.2852 20.4353H87.1032C88.3416 20.4353 89.3491 21.709 89.3491 23.2746C89.3491 24.8401 88.3416 26.1138 87.1032 26.1138Z" fill="white"/>
<path d="M85.3066 24.978H84.4082V26.1137H85.3066V24.978Z" fill="white"/>
<path d="M83.5099 24.978H82.6116V26.1137H83.5099V24.978Z" fill="white"/>
<path d="M87.2645 9.61497L88.2056 8.5105H68.9057C67.8115 8.5105 66.778 8.92446 65.9083 9.6462H67.7886V10.7819H64.8559C64.3771 11.4508 63.9966 12.243 63.7505 13.1317C63.7806 13.4082 63.9688 13.6212 64.1952 13.6212H73.764L77.8066 17.0283H78.4588L76.6599 13.6564L77.4001 13.6212C79.8585 13.6212 82.32 12.8864 84.5192 11.4963L84.896 11.2583L88.9 13.0533L89.3492 12.4855L87.2645 9.61497ZM70.0345 10.7819H69.1361V9.6462H70.0345V10.7819ZM71.8312 10.7819H70.9329V9.6462H71.8312V10.7819ZM73.6279 10.7819H72.7296V9.6462H73.6279V10.7819ZM75.4246 10.7819H74.5263V9.6462H75.4246V10.7819ZM77.2214 10.7819H76.323V9.6462H77.2214V10.7819Z" fill="white"/>
</g>
</g>
<path d="M152.858 29.1174H92.436V31.1847H152.858V29.1174Z" fill="white"/>
<path d="M60.6636 29.1174H0.241943V31.1847H60.6636V29.1174Z" fill="white"/>
<path d="M152.858 24.9829H92.436V27.0501H152.858V24.9829Z" fill="white"/>
<path d="M60.6636 24.9829H0.241943V27.0501H60.6636V24.9829Z" fill="white"/>
</g>
</g>
<defs>
<clipPath id="clip0_93_682">
<rect width="152.616" height="60.0146" fill="white" transform="translate(0.241943 -0.00732422)"/>
</clipPath>
<clipPath id="clip1_93_682">
<rect width="152.616" height="60.0146" fill="white" transform="translate(0.241943 -0.00732422)"/>
</clipPath>
<clipPath id="clip2_93_682">
<rect width="152.616" height="22.9232" fill="white" transform="translate(0.241943 37.084)"/>
</clipPath>
<clipPath id="clip3_93_682">
<rect width="152.616" height="22.9232" fill="white" transform="translate(0.241943 37.084)"/>
</clipPath>
<clipPath id="clip4_93_682">
<rect width="152.616" height="22.9232" fill="white" transform="translate(0.241943 37.084)"/>
</clipPath>
<clipPath id="clip5_93_682">
<rect width="152.616" height="22.9232" fill="white" transform="translate(0.241943 37.084)"/>
</clipPath>
<clipPath id="clip6_93_682">
<rect width="31.7725" height="31.6798" fill="white" transform="translate(60.6636 -0.00732422)"/>
</clipPath>
<clipPath id="clip7_93_682">
<rect width="25.5987" height="31.6798" fill="white" transform="translate(63.7505 -0.00732422)"/>
</clipPath>
</defs>
</svg>
