<svg width="17" height="19" viewBox="0 0 17 19" fill="none" xmlns="http://www.w3.org/2000/svg">
<path d="M9.45012 17.9027C9.26148 18.0914 9.03953 18.1857 8.78428 18.1857C8.52904 18.1857 8.30709 18.0914 8.11844 17.9027L0.927282 10.7116C0.738621 10.5229 0.644516 10.3007 0.644969 10.0451C0.645422 9.78938 0.740305 9.56688 0.929619 9.37756C1.11893 9.18825 1.34065 9.09415 1.59478 9.09525C1.84891 9.09636 2.0703 9.19124 2.25896 9.3799L8.78428 15.9052L15.3096 9.3799C15.4983 9.19124 15.7204 9.09713 15.9761 9.09759C16.2318 9.09804 16.4543 9.19292 16.6436 9.38224C16.8329 9.57155 16.927 9.79327 16.9259 10.0474C16.9248 10.3015 16.8299 10.5229 16.6413 10.7116L9.45012 17.9027ZM9.45012 9.37986C9.26146 9.56852 9.03952 9.66285 8.78428 9.66285C8.52905 9.66285 8.3071 9.56852 8.11844 9.37986L0.927283 2.1887C0.738635 2.00005 0.64453 1.77788 0.644969 1.52218C0.645422 1.2665 0.740306 1.044 0.929619 0.854682C1.11893 0.665368 1.34065 0.571264 1.59478 0.57237C1.84892 0.573488 2.07032 0.668372 2.25896 0.85702L8.78428 7.38234L15.3096 0.85702C15.4982 0.668372 15.7204 0.574268 15.9761 0.574707C16.2318 0.57516 16.4543 0.670043 16.6436 0.859357C16.8329 1.04867 16.927 1.27039 16.9259 1.52452C16.9248 1.77866 16.8299 2.00005 16.6413 2.1887L9.45012 9.37986Z" fill="white"/>
</svg>
