<svg width="35" height="35" viewBox="0 0 35 35" fill="none" xmlns="http://www.w3.org/2000/svg">
<circle cx="17.703" cy="17.2971" r="16.5471" fill="white" stroke="white" stroke-width="1.5"/>
<path d="M19.2659 11.3096C18.2408 11.3114 17.2347 11.5654 16.351 12.0454C15.4673 12.5254 14.7377 13.2141 14.2373 14.0409C13.8067 13.8473 13.3342 13.7464 12.8553 13.7458C12.1044 13.7476 11.3786 13.9958 10.8074 14.4462C10.2361 14.8966 9.8566 15.52 9.73653 16.205C8.94357 16.5117 8.26634 17.0281 7.7899 17.6894C7.31346 18.3506 7.05904 19.1272 7.05859 19.9216C7.05953 20.9905 7.5198 22.0153 8.33819 22.7707C9.15659 23.5261 10.2661 23.9502 11.4228 23.9497C11.6059 23.948 11.7887 23.9357 11.9701 23.9128H24.761C26.8056 23.6899 28.3455 22.0619 28.3473 20.1511V20.1438C28.3466 19.2688 28.0162 18.4214 27.4129 17.747C26.8097 17.0727 25.9711 16.6136 25.0413 16.4484C24.9862 15.0674 24.3534 13.7599 23.2762 12.8013C22.199 11.8426 20.7614 11.3084 19.2659 11.3096Z" fill="#1877F2"/>
</svg>
