<svg width="35" height="35" viewBox="0 0 35 35" fill="none" xmlns="http://www.w3.org/2000/svg">
<path d="M34.5941 17.2971C34.5941 7.74422 26.8499 0 17.2971 0C7.74422 0 0 7.74409 0 17.2971C0 25.9305 6.32532 33.0865 14.5944 34.384V22.297H10.2026V17.2971H14.5944V13.4863C14.5944 9.15123 17.1768 6.75667 21.1277 6.75667C23.0202 6.75667 24.9997 7.0945 24.9997 7.0945V11.3512H22.8186C20.6697 11.3512 19.9997 12.6846 19.9997 14.0525V17.2971H24.797L24.0301 22.297H19.9997V34.384C28.2688 33.0865 34.5941 25.9306 34.5941 17.2971Z" fill="white"/>
<path d="M24.0301 22.2969L24.797 17.297H19.9997V14.0524C19.9997 12.6844 20.6699 11.3511 22.8186 11.3511H24.9997V7.09443C24.9997 7.09443 23.0202 6.75659 21.1277 6.75659C17.1768 6.75659 14.5944 9.15116 14.5944 13.4862V17.297H10.2026V22.2969H14.5944V34.3839C15.4885 34.524 16.3921 34.5943 17.2971 34.5941C18.2021 34.5943 19.1057 34.5241 19.9997 34.3839V22.2969H24.0301Z" fill="#085CA5"/>
</svg>
