<svg width="36" height="35" viewBox="0 0 36 35" fill="none" xmlns="http://www.w3.org/2000/svg">
<circle cx="17.8326" cy="17.2971" r="16.5471" fill="white" stroke="white" stroke-width="1.5"/>
<path d="M14.2213 6.61464C11.9085 7.41698 9.91396 8.93984 8.53061 10.9595C7.14725 12.9792 6.44804 15.3893 6.53566 17.8358C6.62328 20.2823 7.49311 22.6362 9.01741 24.5517C10.5417 26.4673 12.6401 27.8436 15.0044 28.4784C16.9212 28.973 18.9294 28.9947 20.8564 28.5417C22.6021 28.1496 24.2161 27.3108 25.5402 26.1076C26.9184 24.817 27.9187 23.1752 28.4337 21.3587C28.9932 19.3832 29.0928 17.3059 28.7248 15.286H17.9611V19.751H24.1948C24.0702 20.4631 23.8032 21.1428 23.4098 21.7493C23.0164 22.3559 22.5047 22.8768 21.9053 23.281C21.1442 23.7847 20.2861 24.1235 19.3862 24.2756C18.4837 24.4435 17.558 24.4435 16.6555 24.2756C15.7407 24.0867 14.8753 23.7092 14.1146 23.1671C12.8924 22.3019 11.9747 21.0728 11.4924 19.6551C11.0022 18.2109 11.0022 16.6452 11.4924 15.201C11.8357 14.1887 12.4032 13.267 13.1526 12.5047C14.0101 11.6163 15.0958 10.9812 16.2905 10.6692C17.4851 10.3573 18.7427 10.3804 19.9251 10.736C20.8488 11.0194 21.6935 11.5149 22.3918 12.1828C23.0946 11.4835 23.7963 10.7824 24.4968 10.0796C24.8584 9.70161 25.2527 9.34173 25.6089 8.95473C24.5429 7.96285 23.2917 7.19099 21.927 6.68336C19.4417 5.78094 16.7223 5.75669 14.2213 6.61464Z" fill="#090913"/>
<path d="M14.2214 6.61454C16.7222 5.75601 19.4415 5.77962 21.927 6.68146C23.292 7.19253 24.5426 7.96811 25.6072 8.96368C25.2455 9.35068 24.8639 9.71236 24.495 10.0885C23.7933 10.789 23.0923 11.487 22.3918 12.1827C21.6936 11.5148 20.8489 11.0193 19.9251 10.7359C18.7431 10.379 17.4856 10.3546 16.2906 10.6653C15.0956 10.976 14.0093 11.6099 13.1508 12.4973C12.4014 13.2596 11.834 14.1813 11.4907 15.1937L7.74182 12.2912C9.08368 9.63019 11.407 7.59475 14.2214 6.61454Z" fill="#E33629"/>
<path d="M6.74719 15.1666C6.94854 14.168 7.28307 13.2009 7.74182 12.2913L11.4907 15.201C11.0004 16.6452 11.0004 18.2109 11.4907 19.6551C10.2416 20.6196 8.99203 21.5889 7.74182 22.5631C6.59374 20.2778 6.2436 17.674 6.74719 15.1666Z" fill="#F8BD00"/>
<path d="M17.9611 15.2842H28.7248C29.0928 17.3041 28.9932 19.3814 28.4337 21.3568C27.9187 23.1734 26.9184 24.8152 25.5402 26.1057C24.3304 25.1617 23.1151 24.225 21.9053 23.281C22.5051 22.8764 23.017 22.3549 23.4104 21.7477C23.8039 21.1405 24.0706 20.4601 24.1947 19.7473H17.9611C17.9593 18.2608 17.9611 16.7725 17.9611 15.2842Z" fill="#587DBD"/>
<path d="M7.74011 22.563C8.99033 21.5985 10.2399 20.6292 11.489 19.655C11.9722 21.0732 12.8912 22.3024 14.1148 23.167C14.8778 23.7065 15.7451 24.081 16.661 24.2665C17.5635 24.4343 18.4892 24.4343 19.3917 24.2665C20.2916 24.1144 21.1498 23.7756 21.9109 23.2719C23.1207 24.2159 24.3359 25.1526 25.5458 26.0966C24.2218 27.3005 22.6079 28.1399 20.862 28.5325C18.9349 28.9856 16.9267 28.9638 15.0099 28.4692C13.494 28.0645 12.0779 27.3509 10.8506 26.3733C9.55165 25.3418 8.49067 24.0421 7.74011 22.563Z" fill="#319F43"/>
</svg>
