<svg width="36" height="35" viewBox="0 0 36 35" fill="none" xmlns="http://www.w3.org/2000/svg">
<path d="M11.8359 2.88257H23.9424C28.5544 2.88257 32.3016 6.62982 32.3016 11.2418V23.3483C32.3016 25.5653 31.4209 27.6915 29.8533 29.2592C28.2856 30.8269 26.1594 31.7076 23.9424 31.7076H11.8359C7.22387 31.7076 3.47662 27.9603 3.47662 23.3483V11.2418C3.47662 9.02481 4.35733 6.8986 5.92499 5.33094C7.49265 3.76327 9.61886 2.88257 11.8359 2.88257ZM11.5476 5.76507C10.1715 5.76507 8.85183 6.31171 7.8788 7.28475C6.90577 8.25778 6.35912 9.57749 6.35912 10.9536V23.6366C6.35912 26.5047 8.67954 28.8251 11.5476 28.8251H24.2306C25.6067 28.8251 26.9264 28.2784 27.8995 27.3054C28.8725 26.3324 29.4191 25.0126 29.4191 23.6366V10.9536C29.4191 8.08548 27.0987 5.76507 24.2306 5.76507H11.5476ZM25.4557 7.92694C25.9335 7.92694 26.3917 8.11675 26.7296 8.45461C27.0674 8.79247 27.2572 9.2507 27.2572 9.72851C27.2572 10.2063 27.0674 10.6645 26.7296 11.0024C26.3917 11.3403 25.9335 11.5301 25.4557 11.5301C24.9779 11.5301 24.5196 11.3403 24.1818 11.0024C23.8439 10.6645 23.6541 10.2063 23.6541 9.72851C23.6541 9.2507 23.8439 8.79247 24.1818 8.45461C24.5196 8.11675 24.9779 7.92694 25.4557 7.92694ZM17.8891 10.0888C19.8003 10.0888 21.6333 10.848 22.9847 12.1995C24.3361 13.5509 25.0954 15.3839 25.0954 17.2951C25.0954 19.2063 24.3361 21.0392 22.9847 22.3907C21.6333 23.7421 19.8003 24.5013 17.8891 24.5013C15.9779 24.5013 14.145 23.7421 12.7935 22.3907C11.4421 21.0392 10.6829 19.2063 10.6829 17.2951C10.6829 15.3839 11.4421 13.5509 12.7935 12.1995C14.145 10.848 15.9779 10.0888 17.8891 10.0888ZM17.8891 12.9713C16.7424 12.9713 15.6426 13.4269 14.8318 14.2377C14.0209 15.0486 13.5654 16.1483 13.5654 17.2951C13.5654 18.4418 14.0209 19.5416 14.8318 20.3524C15.6426 21.1633 16.7424 21.6188 17.8891 21.6188C19.0359 21.6188 20.1356 21.1633 20.9465 20.3524C21.7573 19.5416 22.2129 18.4418 22.2129 17.2951C22.2129 16.1483 21.7573 15.0486 20.9465 14.2377C20.1356 13.4269 19.0359 12.9713 17.8891 12.9713Z" fill="white"/>
</svg>
