<svg width="35" height="35" viewBox="0 0 35 35" fill="none" xmlns="http://www.w3.org/2000/svg">
<path d="M32.5546 8.64739C31.4448 9.15183 30.2486 9.48332 29.0091 9.64186C30.2774 8.87799 31.2575 7.66734 31.7187 6.21168C30.5224 6.93231 29.1965 7.43674 27.7984 7.72499C26.6599 6.48552 25.0601 5.76489 23.2441 5.76489C19.8572 5.76489 17.09 8.53209 17.09 11.9479C17.09 12.4379 17.1476 12.9135 17.2485 13.3603C12.1177 13.1009 7.54889 10.6363 4.50785 6.90348C3.97459 7.81147 3.67193 8.87799 3.67193 10.0022C3.67193 12.1496 4.75286 14.0521 6.42471 15.133C5.40143 15.133 4.4502 14.8448 3.61428 14.4124V14.4556C3.61428 17.4534 5.74733 19.9612 8.57218 20.5233C7.66524 20.7715 6.7131 20.806 5.79056 20.6242C6.18202 21.8528 6.94866 22.9279 7.98273 23.6983C9.0168 24.4686 10.2663 24.8956 11.5556 24.9191C9.37009 26.6492 6.66107 27.5844 3.8737 27.571C3.38368 27.571 2.89365 27.5422 2.40363 27.4845C5.142 29.2429 8.39923 30.2661 11.8871 30.2661C23.2441 30.2661 29.4847 20.8404 29.4847 12.6685C29.4847 12.3946 29.4847 12.1352 29.4703 11.8614C30.6809 10.9966 31.7186 9.90128 32.5546 8.64739Z" fill="white"/>
</svg>
